<svg id="Capa_1" data-name="Capa 1" xmlns="http://www.w3.org/2000/svg" viewBox="0 0 90 78.47"><defs><style>.cls-1{fill:none;stroke:#cfa82f;stroke-linecap:round;stroke-linejoin:round;stroke-width:5px;}.cls-2{fill:#cfa82f;}</style></defs><path class="cls-1" d="M25.87,86.73H21.79a8.16,8.16,0,0,1-8.17-8.15V58.16C13.62,54.08,7.5,50,7.5,50s6.12-4.08,6.12-8.16V21.43a8.16,8.16,0,0,1,8.17-8.16h4.08M74.13,86.73h4.08a8.16,8.16,0,0,0,8.17-8.15V58.16c0-4.08,6.12-8.16,6.12-8.16s-6.12-4.08-6.12-8.16V21.43a8.16,8.16,0,0,0-8.17-8.16H74.13" transform="translate(-5 -10.77)"/><rect class="cls-2" x="27.52" y="26" width="6.08" height="9.12" rx="1.52" transform="translate(-17.66 19.79) rotate(-45)"/><path class="cls-2" d="M43.92,79.4a3,3,0,0,0,3,3H53a3,3,0,0,0,3-3v-3H43.92Z" transform="translate(-5 -10.77)"/><rect class="cls-2" x="13.56" y="35.21" width="9.12" height="6.08" rx="1.52"/><rect class="cls-2" x="41.96" y="6.8" width="6.08" height="9.12" rx="1.52"/><path class="cls-2" d="M50,30.78a18.24,18.24,0,0,0-9.12,34v5.47a3,3,0,0,0,3,3H56.08a3,3,0,0,0,3-3V64.81a18.24,18.24,0,0,0-9.12-34Zm0,37.28a3.92,3.92,0,1,1,3.92-3.92A3.91,3.91,0,0,1,50,68.06Zm6-16.23-.08.05h0l-3.09,1.85v1.33a2.84,2.84,0,1,1-5.68,0h0v-3c0-.11,0-.21,0-.32a2,2,0,0,1,0-.24l.09-.29c0-.08,0-.16.08-.23l.15-.28.12-.19a2.52,2.52,0,0,1,.21-.25,1.22,1.22,0,0,1,.15-.17,2.11,2.11,0,0,1,.23-.19l.21-.16s0,0,.07-.05l4.41-2.64,0,0a2.76,2.76,0,0,0,1.54-2.26c0-1.12-1.4-3-4.52-3a5.6,5.6,0,0,0-3.23,1,2.88,2.88,0,0,0-1.26,1.71,2.84,2.84,0,0,1-5.56-1.12A8.49,8.49,0,0,1,43.44,38,11.25,11.25,0,0,1,50,36c5,0,10.2,3.35,10.2,8.72A8.41,8.41,0,0,1,56,51.83Z" transform="translate(-5 -10.77)"/><rect class="cls-2" x="67.33" y="35.21" width="9.12" height="6.08" rx="1.52"/><rect class="cls-2" x="64.89" y="27.52" width="9.12" height="6.08" rx="1.52" transform="translate(-6.27 47.29) rotate(-45)"/></svg>