<svg xmlns="http://www.w3.org/2000/svg" version="1.1" xmlns:xlink="http://www.w3.org/1999/xlink" xmlns:svgjs="http://svgjs.dev/svgjs" width="1440" height="560" preserveAspectRatio="none" viewBox="0 0 1440 560"><g mask="url(&quot;#SvgjsMask1007&quot;)" fill="none"><path d="M119.47 280.4L184.43 317.9L184.43 392.9L119.47 430.4L54.52 392.9L54.52 317.9zM314.33 -57.1L379.29 -19.6L379.29 55.4L314.33 92.9L249.38 55.4L249.38 -19.6zM379.29 55.4L444.24 92.9L444.24 167.9L379.29 205.4L314.33 167.9L314.33 92.9zM314.33 167.9L379.29 205.4L379.29 280.4L314.33 317.9L249.38 280.4L249.38 205.4zM574.15 167.9L639.1 205.4L639.1 280.4L574.15 317.9L509.2 280.4L509.2 205.4zM639.1 505.4L704.06 542.9L704.06 617.9L639.1 655.4L574.15 617.9L574.15 542.9zM769.01 505.4L833.97 542.9L833.97 617.9L769.01 655.4L704.06 617.9L704.06 542.9zM833.96 167.9L898.92 205.4L898.92 280.4L833.96 317.9L769.01 280.4L769.01 205.4zM898.92 280.4L963.87 317.9L963.87 392.9L898.92 430.4L833.96 392.9L833.96 317.9zM833.96 392.9L898.92 430.4L898.92 505.4L833.96 542.9L769.01 505.4L769.01 430.4zM898.92 505.4L963.87 542.9L963.87 617.9L898.92 655.4L833.96 617.9L833.96 542.9zM963.87 -57.1L1028.83 -19.6L1028.83 55.4L963.87 92.9L898.92 55.4L898.92 -19.6zM1158.73 280.4L1223.69 317.9L1223.69 392.9L1158.73 430.4L1093.78 392.9L1093.78 317.9zM1223.69 167.9L1288.64 205.4L1288.64 280.4L1223.69 317.9L1158.73 280.4L1158.73 205.4zM1288.64 505.4L1353.59 542.9L1353.59 617.9L1288.64 655.4L1223.69 617.9L1223.69 542.9zM1418.55 55.4L1483.5 92.9L1483.5 167.9L1418.55 205.4L1353.6 167.9L1353.6 92.9zM1353.6 392.9L1418.55 430.4L1418.55 505.4L1353.6 542.9L1288.64 505.4L1288.64 430.4zM1418.55 505.4L1483.5 542.9L1483.5 617.9L1418.55 655.4L1353.6 617.9L1353.6 542.9zM1483.5 167.9L1548.46 205.4L1548.46 280.4L1483.5 317.9L1418.55 280.4L1418.55 205.4zM1548.46 280.4L1613.41 317.9L1613.41 392.9L1548.46 430.4L1483.5 392.9L1483.5 317.9zM1548.46 505.4L1613.41 542.9L1613.41 617.9L1548.46 655.4L1483.5 617.9L1483.5 542.9z" stroke="rgba(0, 0, 0, 0)" stroke-width="2"></path><path d="M111.97 280.4 a7.5 7.5 0 1 0 15 0 a7.5 7.5 0 1 0 -15 0zM176.93 317.9 a7.5 7.5 0 1 0 15 0 a7.5 7.5 0 1 0 -15 0zM176.93 392.9 a7.5 7.5 0 1 0 15 0 a7.5 7.5 0 1 0 -15 0zM111.97 430.4 a7.5 7.5 0 1 0 15 0 a7.5 7.5 0 1 0 -15 0zM47.02 392.9 a7.5 7.5 0 1 0 15 0 a7.5 7.5 0 1 0 -15 0zM47.02 317.9 a7.5 7.5 0 1 0 15 0 a7.5 7.5 0 1 0 -15 0zM306.83 -57.1 a7.5 7.5 0 1 0 15 0 a7.5 7.5 0 1 0 -15 0zM371.79 -19.6 a7.5 7.5 0 1 0 15 0 a7.5 7.5 0 1 0 -15 0zM371.79 55.4 a7.5 7.5 0 1 0 15 0 a7.5 7.5 0 1 0 -15 0zM306.83 92.9 a7.5 7.5 0 1 0 15 0 a7.5 7.5 0 1 0 -15 0zM241.88 55.4 a7.5 7.5 0 1 0 15 0 a7.5 7.5 0 1 0 -15 0zM241.88 -19.6 a7.5 7.5 0 1 0 15 0 a7.5 7.5 0 1 0 -15 0zM436.74 92.9 a7.5 7.5 0 1 0 15 0 a7.5 7.5 0 1 0 -15 0zM436.74 167.9 a7.5 7.5 0 1 0 15 0 a7.5 7.5 0 1 0 -15 0zM371.79 205.4 a7.5 7.5 0 1 0 15 0 a7.5 7.5 0 1 0 -15 0zM306.83 167.9 a7.5 7.5 0 1 0 15 0 a7.5 7.5 0 1 0 -15 0zM371.79 280.4 a7.5 7.5 0 1 0 15 0 a7.5 7.5 0 1 0 -15 0zM306.83 317.9 a7.5 7.5 0 1 0 15 0 a7.5 7.5 0 1 0 -15 0zM241.88 280.4 a7.5 7.5 0 1 0 15 0 a7.5 7.5 0 1 0 -15 0zM241.88 205.4 a7.5 7.5 0 1 0 15 0 a7.5 7.5 0 1 0 -15 0zM566.65 167.9 a7.5 7.5 0 1 0 15 0 a7.5 7.5 0 1 0 -15 0zM631.6 205.4 a7.5 7.5 0 1 0 15 0 a7.5 7.5 0 1 0 -15 0zM631.6 280.4 a7.5 7.5 0 1 0 15 0 a7.5 7.5 0 1 0 -15 0zM566.65 317.9 a7.5 7.5 0 1 0 15 0 a7.5 7.5 0 1 0 -15 0zM501.7 280.4 a7.5 7.5 0 1 0 15 0 a7.5 7.5 0 1 0 -15 0zM501.7 205.4 a7.5 7.5 0 1 0 15 0 a7.5 7.5 0 1 0 -15 0zM631.6 505.4 a7.5 7.5 0 1 0 15 0 a7.5 7.5 0 1 0 -15 0zM696.56 542.9 a7.5 7.5 0 1 0 15 0 a7.5 7.5 0 1 0 -15 0zM696.56 617.9 a7.5 7.5 0 1 0 15 0 a7.5 7.5 0 1 0 -15 0zM631.6 655.4 a7.5 7.5 0 1 0 15 0 a7.5 7.5 0 1 0 -15 0zM566.65 617.9 a7.5 7.5 0 1 0 15 0 a7.5 7.5 0 1 0 -15 0zM566.65 542.9 a7.5 7.5 0 1 0 15 0 a7.5 7.5 0 1 0 -15 0zM761.51 505.4 a7.5 7.5 0 1 0 15 0 a7.5 7.5 0 1 0 -15 0zM826.47 542.9 a7.5 7.5 0 1 0 15 0 a7.5 7.5 0 1 0 -15 0zM826.47 617.9 a7.5 7.5 0 1 0 15 0 a7.5 7.5 0 1 0 -15 0zM761.51 655.4 a7.5 7.5 0 1 0 15 0 a7.5 7.5 0 1 0 -15 0zM826.46 167.9 a7.5 7.5 0 1 0 15 0 a7.5 7.5 0 1 0 -15 0zM891.42 205.4 a7.5 7.5 0 1 0 15 0 a7.5 7.5 0 1 0 -15 0zM891.42 280.4 a7.5 7.5 0 1 0 15 0 a7.5 7.5 0 1 0 -15 0zM826.46 317.9 a7.5 7.5 0 1 0 15 0 a7.5 7.5 0 1 0 -15 0zM761.51 280.4 a7.5 7.5 0 1 0 15 0 a7.5 7.5 0 1 0 -15 0zM761.51 205.4 a7.5 7.5 0 1 0 15 0 a7.5 7.5 0 1 0 -15 0zM956.37 317.9 a7.5 7.5 0 1 0 15 0 a7.5 7.5 0 1 0 -15 0zM956.37 392.9 a7.5 7.5 0 1 0 15 0 a7.5 7.5 0 1 0 -15 0zM891.42 430.4 a7.5 7.5 0 1 0 15 0 a7.5 7.5 0 1 0 -15 0zM826.46 392.9 a7.5 7.5 0 1 0 15 0 a7.5 7.5 0 1 0 -15 0zM891.42 505.4 a7.5 7.5 0 1 0 15 0 a7.5 7.5 0 1 0 -15 0zM826.46 542.9 a7.5 7.5 0 1 0 15 0 a7.5 7.5 0 1 0 -15 0zM761.51 430.4 a7.5 7.5 0 1 0 15 0 a7.5 7.5 0 1 0 -15 0zM956.37 542.9 a7.5 7.5 0 1 0 15 0 a7.5 7.5 0 1 0 -15 0zM956.37 617.9 a7.5 7.5 0 1 0 15 0 a7.5 7.5 0 1 0 -15 0zM891.42 655.4 a7.5 7.5 0 1 0 15 0 a7.5 7.5 0 1 0 -15 0zM826.46 617.9 a7.5 7.5 0 1 0 15 0 a7.5 7.5 0 1 0 -15 0zM956.37 -57.1 a7.5 7.5 0 1 0 15 0 a7.5 7.5 0 1 0 -15 0zM1021.33 -19.6 a7.5 7.5 0 1 0 15 0 a7.5 7.5 0 1 0 -15 0zM1021.33 55.4 a7.5 7.5 0 1 0 15 0 a7.5 7.5 0 1 0 -15 0zM956.37 92.9 a7.5 7.5 0 1 0 15 0 a7.5 7.5 0 1 0 -15 0zM891.42 55.4 a7.5 7.5 0 1 0 15 0 a7.5 7.5 0 1 0 -15 0zM891.42 -19.6 a7.5 7.5 0 1 0 15 0 a7.5 7.5 0 1 0 -15 0zM1151.23 280.4 a7.5 7.5 0 1 0 15 0 a7.5 7.5 0 1 0 -15 0zM1216.19 317.9 a7.5 7.5 0 1 0 15 0 a7.5 7.5 0 1 0 -15 0zM1216.19 392.9 a7.5 7.5 0 1 0 15 0 a7.5 7.5 0 1 0 -15 0zM1151.23 430.4 a7.5 7.5 0 1 0 15 0 a7.5 7.5 0 1 0 -15 0zM1086.28 392.9 a7.5 7.5 0 1 0 15 0 a7.5 7.5 0 1 0 -15 0zM1086.28 317.9 a7.5 7.5 0 1 0 15 0 a7.5 7.5 0 1 0 -15 0zM1216.19 167.9 a7.5 7.5 0 1 0 15 0 a7.5 7.5 0 1 0 -15 0zM1281.14 205.4 a7.5 7.5 0 1 0 15 0 a7.5 7.5 0 1 0 -15 0zM1281.14 280.4 a7.5 7.5 0 1 0 15 0 a7.5 7.5 0 1 0 -15 0zM1151.23 205.4 a7.5 7.5 0 1 0 15 0 a7.5 7.5 0 1 0 -15 0zM1281.14 505.4 a7.5 7.5 0 1 0 15 0 a7.5 7.5 0 1 0 -15 0zM1346.09 542.9 a7.5 7.5 0 1 0 15 0 a7.5 7.5 0 1 0 -15 0zM1346.09 617.9 a7.5 7.5 0 1 0 15 0 a7.5 7.5 0 1 0 -15 0zM1281.14 655.4 a7.5 7.5 0 1 0 15 0 a7.5 7.5 0 1 0 -15 0zM1216.19 617.9 a7.5 7.5 0 1 0 15 0 a7.5 7.5 0 1 0 -15 0zM1216.19 542.9 a7.5 7.5 0 1 0 15 0 a7.5 7.5 0 1 0 -15 0zM1411.05 55.4 a7.5 7.5 0 1 0 15 0 a7.5 7.5 0 1 0 -15 0zM1476 92.9 a7.5 7.5 0 1 0 15 0 a7.5 7.5 0 1 0 -15 0zM1476 167.9 a7.5 7.5 0 1 0 15 0 a7.5 7.5 0 1 0 -15 0zM1411.05 205.4 a7.5 7.5 0 1 0 15 0 a7.5 7.5 0 1 0 -15 0zM1346.1 167.9 a7.5 7.5 0 1 0 15 0 a7.5 7.5 0 1 0 -15 0zM1346.1 92.9 a7.5 7.5 0 1 0 15 0 a7.5 7.5 0 1 0 -15 0zM1346.1 392.9 a7.5 7.5 0 1 0 15 0 a7.5 7.5 0 1 0 -15 0zM1411.05 430.4 a7.5 7.5 0 1 0 15 0 a7.5 7.5 0 1 0 -15 0zM1411.05 505.4 a7.5 7.5 0 1 0 15 0 a7.5 7.5 0 1 0 -15 0zM1346.1 542.9 a7.5 7.5 0 1 0 15 0 a7.5 7.5 0 1 0 -15 0zM1281.14 430.4 a7.5 7.5 0 1 0 15 0 a7.5 7.5 0 1 0 -15 0zM1476 542.9 a7.5 7.5 0 1 0 15 0 a7.5 7.5 0 1 0 -15 0zM1476 617.9 a7.5 7.5 0 1 0 15 0 a7.5 7.5 0 1 0 -15 0zM1411.05 655.4 a7.5 7.5 0 1 0 15 0 a7.5 7.5 0 1 0 -15 0zM1346.1 617.9 a7.5 7.5 0 1 0 15 0 a7.5 7.5 0 1 0 -15 0zM1540.96 205.4 a7.5 7.5 0 1 0 15 0 a7.5 7.5 0 1 0 -15 0zM1540.96 280.4 a7.5 7.5 0 1 0 15 0 a7.5 7.5 0 1 0 -15 0zM1476 317.9 a7.5 7.5 0 1 0 15 0 a7.5 7.5 0 1 0 -15 0zM1411.05 280.4 a7.5 7.5 0 1 0 15 0 a7.5 7.5 0 1 0 -15 0zM1605.91 317.9 a7.5 7.5 0 1 0 15 0 a7.5 7.5 0 1 0 -15 0zM1605.91 392.9 a7.5 7.5 0 1 0 15 0 a7.5 7.5 0 1 0 -15 0zM1540.96 430.4 a7.5 7.5 0 1 0 15 0 a7.5 7.5 0 1 0 -15 0zM1476 392.9 a7.5 7.5 0 1 0 15 0 a7.5 7.5 0 1 0 -15 0zM1540.96 505.4 a7.5 7.5 0 1 0 15 0 a7.5 7.5 0 1 0 -15 0zM1605.91 542.9 a7.5 7.5 0 1 0 15 0 a7.5 7.5 0 1 0 -15 0zM1605.91 617.9 a7.5 7.5 0 1 0 15 0 a7.5 7.5 0 1 0 -15 0zM1540.96 655.4 a7.5 7.5 0 1 0 15 0 a7.5 7.5 0 1 0 -15 0z" fill="rgba(0, 0, 0, 0)"></path><path d="M76.32 70.16L119.63 95.16L119.63 145.16L76.32 170.16L33.02 145.16L33.02 95.16zM33.02 295.16L76.32 320.16L76.32 370.16L33.02 395.16L-10.28 370.16L-10.28 320.16zM76.32 370.16L119.63 395.16L119.63 445.16L76.32 470.16L33.02 445.16L33.02 395.16zM33.02 445.16L76.32 470.16L76.32 520.16L33.02 545.16L-10.28 520.16L-10.28 470.16zM76.32 520.16L119.63 545.16L119.63 595.16L76.32 620.16L33.02 595.16L33.02 545.16zM119.63 -4.84L162.93 20.16L162.93 70.16L119.63 95.16L76.32 70.16L76.32 20.16zM119.63 295.16L162.93 320.16L162.93 370.16L119.63 395.16L76.32 370.16L76.32 320.16zM162.93 370.16L206.23 395.16L206.23 445.16L162.93 470.16L119.63 445.16L119.63 395.16zM119.63 445.16L162.93 470.16L162.93 520.16L119.63 545.16L76.32 520.16L76.32 470.16zM249.53 220.16L292.83 245.16L292.83 295.16L249.53 320.16L206.23 295.16L206.23 245.16zM249.53 370.16L292.83 395.16L292.83 445.16L249.53 470.16L206.23 445.16L206.23 395.16zM249.53 520.16L292.83 545.16L292.83 595.16L249.53 620.16L206.23 595.16L206.23 545.16zM292.83 -4.84L336.14 20.16L336.14 70.16L292.83 95.16L249.53 70.16L249.53 20.16zM336.14 220.16L379.44 245.16L379.44 295.16L336.14 320.16L292.83 295.16L292.83 245.16zM379.44 145.16L422.74 170.16L422.74 220.16L379.44 245.16L336.14 220.16L336.14 170.16zM422.74 220.16L466.05 245.16L466.05 295.16L422.74 320.16L379.44 295.16L379.44 245.16zM379.44 295.16L422.74 320.16L422.74 370.16L379.44 395.16L336.14 370.16L336.14 320.16zM379.44 445.16L422.74 470.16L422.74 520.16L379.44 545.16L336.14 520.16L336.14 470.16zM422.74 520.16L466.05 545.16L466.05 595.16L422.74 620.16L379.44 595.16L379.44 545.16zM466.05 -4.84L509.35 20.16L509.35 70.16L466.05 95.16L422.74 70.16L422.74 20.16zM509.35 70.16L552.65 95.16L552.65 145.16L509.35 170.16L466.05 145.16L466.05 95.16zM466.05 295.16L509.35 320.16L509.35 370.16L466.05 395.16L422.74 370.16L422.74 320.16zM509.35 370.16L552.65 395.16L552.65 445.16L509.35 470.16L466.05 445.16L466.05 395.16zM552.65 -4.84L595.95 20.16L595.95 70.16L552.65 95.16L509.35 70.16L509.35 20.16zM595.95 70.16L639.25 95.16L639.25 145.16L595.95 170.16L552.65 145.16L552.65 95.16zM595.95 220.16L639.25 245.16L639.25 295.16L595.95 320.16L552.65 295.16L552.65 245.16zM552.65 295.16L595.95 320.16L595.95 370.16L552.65 395.16L509.35 370.16L509.35 320.16zM552.65 445.16L595.95 470.16L595.95 520.16L552.65 545.16L509.35 520.16L509.35 470.16zM639.25 145.16L682.56 170.16L682.56 220.16L639.25 245.16L595.95 220.16L595.95 170.16zM639.25 295.16L682.56 320.16L682.56 370.16L639.25 395.16L595.95 370.16L595.95 320.16zM682.56 370.16L725.86 395.16L725.86 445.16L682.56 470.16L639.25 445.16L639.25 395.16zM639.25 445.16L682.56 470.16L682.56 520.16L639.25 545.16L595.95 520.16L595.95 470.16zM682.56 520.16L725.86 545.16L725.86 595.16L682.56 620.16L639.25 595.16L639.25 545.16zM725.86 -4.84L769.16 20.16L769.16 70.16L725.86 95.16L682.56 70.16L682.56 20.16zM725.86 145.16L769.16 170.16L769.16 220.16L725.86 245.16L682.56 220.16L682.56 170.16zM769.16 220.16L812.47 245.16L812.47 295.16L769.16 320.16L725.86 295.16L725.86 245.16zM769.16 370.16L812.47 395.16L812.47 445.16L769.16 470.16L725.86 445.16L725.86 395.16zM725.86 445.16L769.16 470.16L769.16 520.16L725.86 545.16L682.56 520.16L682.56 470.16zM812.47 -4.84L855.77 20.16L855.77 70.16L812.47 95.16L769.16 70.16L769.16 20.16zM812.47 145.16L855.77 170.16L855.77 220.16L812.47 245.16L769.16 220.16L769.16 170.16zM855.77 220.16L899.07 245.16L899.07 295.16L855.77 320.16L812.47 295.16L812.47 245.16zM855.77 370.16L899.07 395.16L899.07 445.16L855.77 470.16L812.47 445.16L812.47 395.16zM855.77 520.16L899.07 545.16L899.07 595.16L855.77 620.16L812.47 595.16L812.47 545.16zM942.37 70.16L985.68 95.16L985.68 145.16L942.37 170.16L899.07 145.16L899.07 95.16zM899.07 145.16L942.37 170.16L942.37 220.16L899.07 245.16L855.77 220.16L855.77 170.16zM942.37 220.16L985.68 245.16L985.68 295.16L942.37 320.16L899.07 295.16L899.07 245.16zM899.07 295.16L942.37 320.16L942.37 370.16L899.07 395.16L855.77 370.16L855.77 320.16zM942.37 370.16L985.68 395.16L985.68 445.16L942.37 470.16L899.07 445.16L899.07 395.16zM942.37 520.16L985.68 545.16L985.68 595.16L942.37 620.16L899.07 595.16L899.07 545.16zM1028.98 70.16L1072.28 95.16L1072.28 145.16L1028.98 170.16L985.68 145.16L985.68 95.16zM1028.98 370.16L1072.28 395.16L1072.28 445.16L1028.98 470.16L985.68 445.16L985.68 395.16zM1115.58 70.16L1158.88 95.16L1158.88 145.16L1115.58 170.16L1072.28 145.16L1072.28 95.16zM1115.58 370.16L1158.88 395.16L1158.88 445.16L1115.58 470.16L1072.28 445.16L1072.28 395.16zM1072.28 445.16L1115.58 470.16L1115.58 520.16L1072.28 545.16L1028.98 520.16L1028.98 470.16zM1158.88 -4.84L1202.19 20.16L1202.19 70.16L1158.88 95.16L1115.58 70.16L1115.58 20.16zM1158.88 145.16L1202.19 170.16L1202.19 220.16L1158.88 245.16L1115.58 220.16L1115.58 170.16zM1158.88 295.16L1202.19 320.16L1202.19 370.16L1158.88 395.16L1115.58 370.16L1115.58 320.16zM1158.88 445.16L1202.19 470.16L1202.19 520.16L1158.88 545.16L1115.58 520.16L1115.58 470.16zM1245.49 -4.84L1288.79 20.16L1288.79 70.16L1245.49 95.16L1202.19 70.16L1202.19 20.16zM1288.79 70.16L1332.1 95.16L1332.1 145.16L1288.79 170.16L1245.49 145.16L1245.49 95.16zM1245.49 145.16L1288.79 170.16L1288.79 220.16L1245.49 245.16L1202.19 220.16L1202.19 170.16zM1288.79 370.16L1332.1 395.16L1332.1 445.16L1288.79 470.16L1245.49 445.16L1245.49 395.16zM1245.49 445.16L1288.79 470.16L1288.79 520.16L1245.49 545.16L1202.19 520.16L1202.19 470.16zM1288.79 520.16L1332.1 545.16L1332.1 595.16L1288.79 620.16L1245.49 595.16L1245.49 545.16zM1332.1 -4.84L1375.4 20.16L1375.4 70.16L1332.1 95.16L1288.79 70.16L1288.79 20.16zM1375.4 220.16L1418.7 245.16L1418.7 295.16L1375.4 320.16L1332.1 295.16L1332.1 245.16zM1332.1 295.16L1375.4 320.16L1375.4 370.16L1332.1 395.16L1288.79 370.16L1288.79 320.16zM1418.7 -4.84L1462 20.16L1462 70.16L1418.7 95.16L1375.4 70.16L1375.4 20.16zM1418.7 145.16L1462 170.16L1462 220.16L1418.7 245.16L1375.4 220.16L1375.4 170.16zM1462 220.16L1505.31 245.16L1505.31 295.16L1462 320.16L1418.7 295.16L1418.7 245.16zM1418.7 295.16L1462 320.16L1462 370.16L1418.7 395.16L1375.4 370.16L1375.4 320.16zM1418.7 445.16L1462 470.16L1462 520.16L1418.7 545.16L1375.4 520.16L1375.4 470.16zM1462 520.16L1505.31 545.16L1505.31 595.16L1462 620.16L1418.7 595.16L1418.7 545.16z" stroke="rgba(0, 0, 0, 0)" stroke-width="2"></path></g><defs><mask id="SvgjsMask1007"><rect width="1440" height="560" fill="#ffffff"></rect></mask></defs></svg>